<svg width="480" height="480" viewBox="0 0 480 480" fill="none" xmlns="http://www.w3.org/2000/svg">
<rect width="480" height="480" fill="white"/>
<rect x="32" y="32" width="200" height="200" rx="10" fill="#E6E6E6"/>
<path d="M177 182C179.761 182 182.026 179.756 181.75 177.008C180.604 165.581 175.548 154.837 167.355 146.645C157.979 137.268 145.261 132 132 132C118.739 132 106.021 137.268 96.6447 146.645C88.4519 154.837 83.3959 165.581 82.2497 177.008C81.9741 179.756 84.2386 182 87 182V182C89.7614 182 91.9677 179.753 92.312 177.013C93.4138 168.243 97.3995 160.032 103.716 153.716C111.217 146.214 121.391 142 132 142C142.609 142 152.783 146.214 160.284 153.716C166.6 160.032 170.586 168.243 171.688 177.013C172.032 179.753 174.239 182 177 182V182Z" fill="#C4C4C4"/>
<rect x="107" y="75" width="10" height="40" rx="5" fill="#C4C4C4"/>
<rect x="147" y="75" width="10" height="40" rx="5" fill="#C4C4C4"/>
<rect x="248" y="248" width="200" height="200" rx="10" fill="#E6E6E6"/>
<path d="M393 398C395.761 398 398.026 395.756 397.75 393.008C396.604 381.581 391.548 370.837 383.355 362.645C373.979 353.268 361.261 348 348 348C334.739 348 322.021 353.268 312.645 362.645C304.452 370.837 299.396 381.581 298.25 393.008C297.974 395.756 300.239 398 303 398V398C305.761 398 307.968 395.753 308.312 393.013C309.414 384.243 313.4 376.032 319.716 369.716C327.217 362.214 337.391 358 348 358C358.609 358 368.783 362.214 376.284 369.716C382.6 376.032 386.586 384.243 387.688 393.013C388.032 395.753 390.239 398 393 398V398Z" fill="#C4C4C4"/>
<rect x="323" y="291" width="10" height="40" rx="5" fill="#C4C4C4"/>
<rect x="363" y="291" width="10" height="40" rx="5" fill="#C4C4C4"/>
<rect x="32" y="248" width="200" height="200" rx="10" fill="#E6E6E6"/>
<path d="M177 398C179.761 398 182.026 395.756 181.75 393.008C180.604 381.581 175.548 370.837 167.355 362.645C157.979 353.268 145.261 348 132 348C118.739 348 106.021 353.268 96.6447 362.645C88.4519 370.837 83.3959 381.581 82.2497 393.008C81.9741 395.756 84.2386 398 87 398V398C89.7614 398 91.9677 395.753 92.312 393.013C93.4138 384.243 97.3995 376.032 103.716 369.716C111.217 362.214 121.391 358 132 358C142.609 358 152.783 362.214 160.284 369.716C166.6 376.032 170.586 384.243 171.688 393.013C172.032 395.753 174.239 398 177 398V398Z" fill="#C4C4C4"/>
<rect x="107" y="291" width="10" height="40" rx="5" fill="#C4C4C4"/>
<rect x="147" y="291" width="10" height="40" rx="5" fill="#C4C4C4"/>
<rect x="248" y="32" width="200" height="200" rx="10" fill="#E6E6E6"/>
<path d="M393 182C395.761 182 398.026 179.756 397.75 177.008C396.604 165.581 391.548 154.837 383.355 146.645C373.979 137.268 361.261 132 348 132C334.739 132 322.021 137.268 312.645 146.645C304.452 154.837 299.396 165.581 298.25 177.008C297.974 179.756 300.239 182 303 182V182C305.761 182 307.968 179.753 308.312 177.013C309.414 168.243 313.4 160.032 319.716 153.716C327.217 146.214 337.391 142 348 142C358.609 142 368.783 146.214 376.284 153.716C382.6 160.032 386.586 168.243 387.688 177.013C388.032 179.753 390.239 182 393 182V182Z" fill="#C4C4C4"/>
<rect x="323" y="75" width="10" height="40" rx="5" fill="#C4C4C4"/>
<rect x="363" y="75" width="10" height="40" rx="5" fill="#C4C4C4"/>
</svg>
